<?xml version="1.0" encoding="utf-8"?>
<!--Designed by Vexels.com - 2017 All Rights Reserved - https://vexels.com/terms-and-conditions/-->
<svg version="1.1" id="Layer_1" xmlns="http://www.w3.org/2000/svg" xmlns:xlink="http://www.w3.org/1999/xlink" x="0px" y="0px"
	 viewBox="0 0 1200 1200" enable-background="new 0 0 1200 1200" xml:space="preserve">
<g>
	<g>
		<g>
			<g>
				<g>
					<path fill="#65C4BF" d="M1138.585,664.22c0.807-5.394,0.628-12.078-1.676-19.694c-9.491,4.258-31.24,14.747-52.556,30.335
						c7.357-23.228,12.179-38.408,12.375-39.022c0.11-0.354,0.21-0.702,0.294-1.064c6.912-29.773,10.02-62.034,11.204-90.895
						c0.44-0.529,0.927-1.012,1.254-1.651c9.63-18.896,30.204-38.665,40.52-47.89c-1.456-4.533-4.32-10.157-9.545-16.292
						c-6.533,5.68-19.85,17.84-31.645,32.29c-0.064-15.828-0.583-29.284-1.102-38.962c-5.23-6.209-5.268-9.851-19.901-10.72
						c0.081,0.954-0.597,92.912-17.728,167.305c-5.077,15.967-74.708,232.509-102.396,296.754
						c5.536,3.938,23.499,11.319,35.367,11.027c10.143-35.252,46.414-150.565,70.738-227.5
						C1094.383,687.183,1123.362,671.573,1138.585,664.22z M1088.666,606.443c1.727-7.78,3.075-15.76,3.917-23.619
						c0.947-7.772,1.187-15.599,1.19-23.124c-0.143-15.073-1.346-29.285-0.891-41.581c0.266-12.315,2.71-22.425,5.104-29.123
						c1.063-3.408,2.301-5.931,3.038-7.686c0.762-1.743,1.166-2.674,1.166-2.674s-0.328,0.961-0.947,2.761
						c-0.597,1.805-1.619,4.399-2.4,7.857c-1.878,6.822-3.238,16.844-3.118,28.894c0.117,12.06,2.016,26.151,2.222,41.505
						c0.106,7.677-0.006,15.597-0.872,23.699c-0.637,8.053-2.293,16.05-4.108,24.098c-7.835,31.82-20.511,61.877-30.272,84.184
						c-10.077,22.199-17.555,36.613-17.555,36.613s6.531-14.872,15.343-37.541c4.504-11.291,9.571-24.539,14.498-38.888
						C1079.986,637.509,1085.035,622.117,1088.666,606.443z M1059.797,732.891c-3.81,10.646-8.336,23.056-13.888,36.05
						c-5.508,13.006-11.259,26.944-17.544,40.571c-3.054,6.873-6.073,13.649-8.632,20.529c-2.589,6.838-4.659,13.76-6.779,20.434
						c-4.126,13.39-7.18,26.169-9.631,37.15c-5.094,21.943-7.697,36.796-7.697,36.796s0.977-15.049,4.477-37.423
						c1.912-11.153,4.347-24.149,7.853-37.921c3.427-13.776,8.743-28.2,14.709-42.038c5.73-13.959,12.305-27.472,17.922-40.387
						c5.7-12.878,11.023-24.895,15.583-35.196c9.029-20.693,15.048-34.487,15.048-34.487S1067.429,711.591,1059.797,732.891z"/>
				</g>
			</g>
		</g>
		<g>
			<g>
				<g>
					<path fill="#65C4BF" d="M126.21,708.241c24.324,76.935,60.596,192.248,70.738,227.5c11.868,0.293,29.831-7.089,35.367-11.027
						C204.628,860.47,134.997,643.928,129.92,627.96c-17.131-74.393-17.809-166.351-17.728-167.305
						c-14.633,0.868-14.671,4.51-19.901,10.72c-0.519,9.678-1.038,23.134-1.102,38.962c-11.795-14.45-25.111-26.61-31.645-32.29
						c-5.224,6.135-8.089,11.759-9.545,16.292c10.316,9.225,30.891,28.994,40.52,47.89c0.327,0.639,0.815,1.122,1.254,1.651
						c1.185,28.861,4.292,61.122,11.204,90.895c0.085,0.362,0.184,0.71,0.294,1.064c0.196,0.614,5.018,15.794,12.375,39.022
						c-21.317-15.589-43.065-26.077-52.556-30.335c-2.304,7.616-2.483,14.3-1.676,19.694
						C76.638,671.573,105.617,687.183,126.21,708.241z M125.019,651.817c4.927,14.349,9.995,27.597,14.498,38.888
						c8.812,22.669,15.343,37.541,15.343,37.541s-7.478-14.414-17.555-36.613c-9.761-22.307-22.436-52.363-30.272-84.184
						c-1.815-8.048-3.472-16.045-4.109-24.098c-0.865-8.102-0.978-16.022-0.872-23.699c0.207-15.354,2.105-29.446,2.222-41.505
						c0.12-12.05-1.24-22.071-3.118-28.894c-0.78-3.457-1.803-6.052-2.399-7.857c-0.619-1.8-0.947-2.761-0.947-2.761
						s0.404,0.93,1.166,2.674c0.737,1.755,1.974,4.278,3.038,7.686c2.393,6.698,4.838,16.808,5.103,29.123
						c0.454,12.296-0.748,26.509-0.891,41.581c0.003,7.525,0.243,15.352,1.19,23.124c0.842,7.86,2.19,15.839,3.917,23.619
						C114.965,622.117,120.014,637.509,125.019,651.817z M128.781,696.969c0,0,6.019,13.794,15.049,34.487
						c4.56,10.301,9.882,22.319,15.583,35.196c5.617,12.915,12.193,26.428,17.922,40.387c5.966,13.838,11.282,28.262,14.709,42.038
						c3.506,13.772,5.941,26.768,7.854,37.921c3.5,22.374,4.477,37.423,4.477,37.423s-2.602-14.853-7.697-36.796
						c-2.451-10.981-5.505-23.76-9.631-37.15c-2.121-6.674-4.19-13.596-6.779-20.434c-2.559-6.88-5.578-13.656-8.632-20.529
						c-6.284-13.627-12.036-27.565-17.544-40.571c-5.551-12.994-10.078-25.404-13.888-36.05
						C132.571,711.591,128.781,696.969,128.781,696.969z"/>
				</g>
			</g>
		</g>
	</g>
	<g>
		<path fill="#82495B" d="M313.365,966.128c0.717,5.046-0.869,9.94-4.764,14.673c-3.896,4.737-8.394,7.318-13.495,7.748
			c-5.104,0.433-10.561-1.744-16.371-6.52l-10.416-8.567l25.055-30.463l10.762,8.855
			C309.569,956.321,312.645,961.08,313.365,966.128z M293.482,980.131c2.962-0.195,5.67-1.79,8.134-4.783
			c2.458-2.99,3.518-5.979,3.175-8.966c-0.346-2.987-2.248-5.902-5.704-8.746l-3.79-3.116l-15.233,18.519l4.313,3.549
			C287.487,979.144,290.52,980.325,293.482,980.131z"/>
		<path fill="#82495B" d="M350.778,1026.086c-5.441,1.203-10.639,0.266-15.588-2.81c-4.953-3.079-8.097-7.324-9.427-12.735
			c-1.333-5.411-0.47-10.577,2.588-15.496c3.058-4.922,7.306-7.983,12.747-9.185s10.639-0.266,15.591,2.813
			c4.953,3.076,8.094,7.321,9.427,12.732c1.333,5.41,0.47,10.577-2.588,15.496C360.47,1021.822,356.219,1024.883,350.778,1026.086z
			 M355.892,1012.192c1.858-2.987,2.483-6.131,1.877-9.433c-0.609-3.299-2.31-5.819-5.104-7.553
			c-2.798-1.738-5.809-2.149-9.034-1.231c-3.228,0.918-5.769,2.869-7.627,5.856c-1.855,2.99-2.476,6.125-1.858,9.408
			c0.615,3.283,2.322,5.794,5.117,7.531c2.798,1.738,5.803,2.155,9.022,1.255C351.498,1017.123,354.037,1015.178,355.892,1012.192z"
			/>
		<path fill="#82495B" d="M410.321,1039.504l8.072,3.648l-5.76,12.753c-5.361,2.365-11.195,2.124-17.502-0.726
			c-5.281-2.384-8.923-6.134-10.926-11.248c-2.003-5.114-1.799-10.336,0.609-15.669c2.405-5.33,6.239-8.954,11.501-10.87
			c5.262-1.917,10.472-1.71,15.632,0.621s8.876,6.051,11.149,11.164l-6.882,4.134c-0.977-2.133-2.022-3.769-3.138-4.913
			c-1.113-1.144-2.458-2.071-4.035-2.782c-3.052-1.379-6.091-1.503-9.121-0.374c-3.027,1.132-5.308,3.392-6.839,6.786
			c-1.533,3.395-1.759,6.564-0.674,9.51c1.085,2.946,3.014,5.046,5.791,6.298c2.776,1.255,5.33,1.768,7.664,1.543L410.321,1039.504z
			"/>
		<path fill="#82495B" d="M499.9,1067.858l8.632,1.997l-3.16,13.635c-4.795,3.367-10.564,4.27-17.307,2.708
			c-5.645-1.308-9.949-4.273-12.911-8.898c-2.965-4.625-3.784-9.788-2.464-15.486s4.372-10.002,9.158-12.908
			c4.786-2.906,9.937-3.722,15.452-2.445c5.513,1.28,9.884,4.202,13.112,8.774l-5.942,5.398c-1.376-1.901-2.721-3.302-4.035-4.208
			c-1.317-0.903-2.817-1.549-4.502-1.938c-3.262-0.757-6.27-0.284-9.015,1.413c-2.752,1.7-4.545,4.365-5.386,7.992
			s-0.442,6.78,1.196,9.458c1.639,2.677,3.942,4.359,6.91,5.046c2.971,0.689,5.574,0.696,7.816,0.016L499.9,1067.858z"/>
		<path fill="#82495B" d="M567.371,1071.095c-0.643,6.288-3.546,10.094-8.709,11.418l8.502,15.051l-10.778-1.104l-7.423-13.406
			l-6.063-0.618l-1.277,12.518l-8.759-0.897l4.01-39.234l14.874,1.518c6.1,0.625,10.345,2.096,12.735,4.421
			C566.873,1063.084,567.838,1066.532,567.371,1071.095z M556.343,1074.678c1.184-0.863,1.883-2.353,2.099-4.468
			c0.216-2.112-0.198-3.62-1.24-4.52c-1.042-0.903-2.968-1.496-5.772-1.781l-6.57-0.671l-1.184,11.619l6.397,0.652
			C553.069,1075.816,555.156,1075.541,556.343,1074.678z"/>
		<path fill="#82495B" d="M627.817,1092.27c-3.886,3.995-8.743,6.069-14.571,6.217c-5.828,0.151-10.787-1.666-14.874-5.454
			c-4.084-3.79-6.205-8.579-6.354-14.37c-0.151-5.791,1.716-10.685,5.602-14.679c3.883-3.995,8.74-6.069,14.571-6.221
			c5.828-0.151,10.784,1.67,14.871,5.457c4.087,3.787,6.205,8.579,6.357,14.37S631.7,1088.276,627.817,1092.27z M624.45,1077.85
			c-0.09-3.515-1.295-6.486-3.617-8.907c-2.319-2.424-5.126-3.593-8.416-3.509c-3.29,0.087-6.032,1.397-8.224,3.939
			s-3.24,5.568-3.15,9.083c0.093,3.518,1.299,6.477,3.617,8.882c2.319,2.405,5.126,3.565,8.416,3.478
			c3.29-0.087,6.032-1.388,8.224-3.911C623.492,1084.386,624.543,1081.366,624.45,1077.85z"/>
		<path fill="#82495B" d="M694.811,1083.994c-3.311,4.483-7.844,7.191-13.597,8.128c-5.757,0.937-10.914-0.198-15.474-3.401
			c-4.56-3.203-7.306-7.661-8.236-13.381c-0.928-5.717,0.26-10.818,3.571-15.301s7.844-7.191,13.6-8.128
			c5.754-0.934,10.911,0.198,15.471,3.401c4.56,3.203,7.309,7.664,8.236,13.381C699.313,1074.409,698.122,1079.511,694.811,1083.994
			z M689.534,1070.161c-0.566-3.472-2.161-6.251-4.789-8.341c-2.625-2.087-5.562-2.866-8.811-2.337s-5.788,2.198-7.618,5.012
			c-1.827,2.813-2.461,5.955-1.895,9.427c0.566,3.472,2.158,6.242,4.783,8.31c2.622,2.068,5.559,2.841,8.808,2.313
			c3.246-0.529,5.788-2.189,7.621-4.984C689.463,1076.765,690.096,1073.633,689.534,1070.161z"/>
		<path fill="#82495B" d="M756.537,1047.36l-3.673,23.766l-5.005,1.583l-16.609-17.36l7.479,23.676l-8.391,2.65l-11.881-37.608
			l11.35-3.586l16.213,17.601l3.212-23.738l11.297-3.568l11.881,37.608l-8.391,2.653L756.537,1047.36z"/>
		<path fill="#82495B" d="M784.656,1020.515l8.035-3.593l16.105,36.003l-8.035,3.593L784.656,1020.515z"/>
		<path fill="#82495B" d="M840.174,991.771l7.612-4.424l19.815,34.105l-7.612,4.421l-28.66-11.928l12.416,21.367l-7.612,4.421
			l-19.815-34.102l7.123-4.137l29.489,12.231L840.174,991.771z"/>
		<path fill="#82495B" d="M901.474,972.37l7.012-5.411l8.549,11.081c-0.433,5.843-3.388,10.88-8.87,15.106
			c-4.585,3.54-9.609,4.99-15.063,4.353c-5.457-0.637-9.971-3.271-13.545-7.902c-3.571-4.631-4.965-9.717-4.183-15.264
			c0.782-5.543,3.413-10.045,7.896-13.505c4.483-3.456,9.513-4.987,15.094-4.588l0.414,8.017c-2.344-0.139-4.279,0.012-5.812,0.458
			c-1.533,0.448-2.983,1.2-4.353,2.254c-2.653,2.047-4.189,4.672-4.616,7.875c-0.427,3.203,0.498,6.279,2.77,9.229
			c2.276,2.946,4.968,4.634,8.079,5.064c3.107,0.427,5.868-0.291,8.283-2.152c2.412-1.861,4.066-3.871,4.962-6.035L901.474,972.37z"
			/>
	</g>
	<g>
		<path fill="#FFFFFF" d="M625.137,298.817c-0.543,2.858-1.054,5.72-1.514,8.589C624.083,304.537,624.594,301.675,625.137,298.817z"
			/>
	</g>
	<g>
		<path fill="#FFFFFF" d="M853.796,461.245c23.454,41.905,36.886,90.144,36.886,141.484h0.001
			c0,74.991-28.553,143.435-75.347,195.049c-19.657,21.68-42.563,40.341-67.896,55.318C704.179,878.669,653.791,893.41,600,893.41
			c-57.059,0-110.285-16.592-155.236-45.108c-15.151-9.613-29.364-20.564-42.451-32.728
			c-57.149-53.116-92.995-128.857-92.995-212.846h-0.001c0-45.48,10.521-88.541,29.222-126.913
			c-1.393-11.48-2.627-23.016-3.74-34.191c-28.654,46.993-45.181,102.153-45.181,161.104h0.001
			c0,79.391,29.997,151.884,79.208,206.829c56.873,63.5,139.42,103.55,231.172,103.55c94.253,0,178.766-42.286,235.737-108.818
			c46.475-54.277,74.643-124.671,74.643-201.561h-0.001c0-64.318-19.672-124.124-53.305-173.732c-0.131,1.37-0.258,2.728-0.39,4.114
			C855.806,442.239,854.85,451.701,853.796,461.245z"/>
	</g>
	<g>
		<path fill="#FFFFFF" d="M840.42,434.185c-1.044,0.285-2.07,0.646-3.093,1.013l0,0C838.35,434.832,839.375,434.471,840.42,434.185z
			"/>
	</g>
	<g>
		<path fill="#B7B6B6" d="M660.309,573.906c0.145,0.357,0.299,0.716,0.451,1.075c0.008,0.003,0.016,0.007,0.022,0.01
			C660.63,574.63,660.455,574.264,660.309,573.906z"/>
	</g>
	<g>
		<path fill="#B8E0DC" d="M710.146,742c-9.913,16.358-21.931,29.293-36.164,33.242c-0.897,0.249-1.747,0.437-2.63,0.668
			c-22.295,22.467-55.401,62.372-71.106,113.745c-0.65,2.132-2.612,3.505-4.732,3.505c-0.477,0-0.966-0.073-1.447-0.219
			c-2.612-0.8-4.086-3.566-3.286-6.179c14.172-46.362,41.282-83.157,63.258-107.242c-12.322,1.888-22.976,2.083-31.657,1.45
			c-18.01-1.315-36.109-1.315-54.12,0c-1.546,0.113-3.164,0.196-4.831,0.253c6.587,10.686,12.778,24.091,17.376,40.809
			c0.727,2.635-0.823,5.359-3.459,6.082c-0.439,0.123-0.881,0.181-1.316,0.181c-2.17,0-4.163-1.443-4.767-3.64
			c-5.132-18.661-12.423-32.875-19.868-43.563c-10.079-0.545-21.711-2.237-34.733-5.85c-4.855-1.347-9.446-3.766-13.792-6.981
			c-14.871,10.189-29.737,20.63-40.811,34.868c-10.018,14.025-15.453,29.319-17.3,45.173C489.715,876.819,542.942,893.41,600,893.41
			c53.79,0,104.179-14.741,147.439-40.315c1.185-2.181,2.388-4.327,3.61-6.421C781.687,798.165,746.458,771.061,710.146,742z"/>
	</g>
	<g>
		<path fill="#B7B6B6" d="M532.067,569.219c0.013-0.04,0.029-0.081,0.041-0.121h-0.007
			C532.088,569.139,532.081,569.179,532.067,569.219z"/>
	</g>
	<g>
		<path fill="#B7B6B6" d="M658.541,569.099c0.013,0.041,0.029,0.083,0.042,0.124c-0.013-0.042-0.022-0.083-0.035-0.124H658.541z"/>
	</g>
	<g>
		<path fill="#B7B6B6" d="M531.857,569.825c-0.375,1.112-0.788,2.233-1.235,3.362C531.07,572.057,531.482,570.936,531.857,569.825z"
			/>
	</g>
	<g>
		<path fill="#B7B6B6" d="M660.031,573.197c-0.45-1.137-0.867-2.265-1.244-3.384C659.165,570.932,659.581,572.06,660.031,573.197z"
			/>
	</g>
	<g>
		<g>
			<path fill="#82495B" d="M975.715,299.884c-0.372-24.429,0.467-49.997,0.533-72.874
				C976.182,249.884,975.342,275.46,975.715,299.884z"/>
		</g>
		<g>
			<path fill="#82495B" d="M323.923,327.485c-0.12-0.327-0.203-0.554-0.203-0.554S323.802,327.158,323.923,327.485z"/>
		</g>
		<g>
			<path fill="#82495B" d="M218.203,218.236c0.009-1.222,0.026-2.423,0.042-3.624c-0.003-0.013-0.005-0.026-0.008-0.039
				C218.221,215.778,218.213,217.009,218.203,218.236z"/>
		</g>
		<g>
			<path fill="#82495B" d="M324.003,327.705L324.003,327.705c-0.026-0.072-0.059-0.159-0.08-0.22
				C323.951,327.563,323.968,327.611,324.003,327.705z"/>
		</g>
		<g>
			<path fill="#82495B" d="M976.195,214.572c-0.003,0.014-0.006,0.028-0.009,0.042c0.016,1.201,0.033,2.4,0.042,3.621
				C976.219,217.009,976.212,215.778,976.195,214.572z"/>
		</g>
		<g>
			<path fill="#82495B" d="M967.252,158.686c-21.638-31.669-126.5-69.277-154.796-53.442
				c-19.265,10.781-50.088,41.732-67.811,60.401c-58.497-26.412-123.475-24.561-143.275-23.23
				c-2.671,0.18-82.199-8.366-152.574,22.189c-17.861-18.758-47.908-48.776-66.82-59.359
				c-28.296-15.835-133.159,21.773-154.797,53.442c-6.69,9.791-8.593,30.527-8.935,55.925c8.343,42.958,17.207,84.129,22.25,132.113
				c0,3.959,13.316,7.917,23.303,0c36.619-35.628,36.619-91.05,79.895-126.678c10.668-6.343,17.062-22.847,19.184-41.373
				c1.139-9.938,9.623-16.745,17.642-13.63c2.898,1.126,5.286,3.343,6.452,7.499c9.987,59.38-29.961,106.884-59.922,150.43
				c-1.105,1.577-2.11,3.154-3.045,4.732c0.758,2.054,3.124,8.309,6.446,15.524c-1.85,13.256-2.491,25.832-1.414,36.709
				c1.414,14.271,2.983,32.913,4.93,53.172c10.688-1.547,22.279,1.54,31.214,8.623c1.664,1.485,3.173,3.155,4.551,4.972
				c1.378,1.817,2.627,3.781,3.771,5.853c6.293,11.397,9.44,26.068,13.768,37.582c0.393,1.047,0.797,2.067,1.212,3.057
				c23.303,63.339,96.54,15.835,133.159,39.587c1.211,0.886,2.293,1.801,3.314,2.73c0.212,0.193,0.428,0.384,0.632,0.578
				c0.955,0.909,1.832,1.836,2.619,2.783c0.14,0.168,0.263,0.34,0.398,0.51c0.707,0.89,1.348,1.794,1.916,2.715
				c0.086,0.138,0.184,0.274,0.266,0.413c0.592,1,1.091,2.02,1.53,3.055c0.096,0.227,0.188,0.456,0.276,0.684
				c0.409,1.047,0.764,2.106,1.027,3.187c0.025,0.1,0.038,0.203,0.061,0.304c0.237,1.022,0.402,2.06,0.518,3.111
				c0.025,0.224,0.056,0.448,0.075,0.674c0.095,1.1,0.127,2.216,0.099,3.345c-0.006,0.235-0.022,0.473-0.033,0.709
				c-0.05,1.083-0.143,2.177-0.297,3.285c-0.016,0.111-0.022,0.219-0.039,0.33c-0.173,1.182-0.419,2.38-0.701,3.587
				c-0.064,0.274-0.129,0.549-0.198,0.825c-0.291,1.153-0.623,2.316-1.003,3.492h0.007c-0.012,0.04-0.029,0.081-0.041,0.121
				c-0.065,0.201-0.141,0.404-0.21,0.605c-0.375,1.112-0.788,2.233-1.235,3.362c-0.953,2.405-2.058,4.847-3.297,7.324
				c7.102-3.603,15.409-6.55,24.422-8.865c0.135-0.314,0.286-0.619,0.419-0.936c1.055-2.53,1.99-5.139,2.799-7.822
				c5.659-18.783,5.13-41.203-3.363-65.733c-9.987-23.753-19.973-47.505-16.644-79.174c3.329-31.67,29.96-43.546,33.29-71.256
				c2.288-16.329,0.25-32.191-2.735-47.907c-3.527-18.573-8.377-36.942-8.968-55.638c-0.046-1.438-0.066-2.878-0.059-4.321
				c0.037-7.211,0.767-14.476,2.509-21.826c0.696-2.94,1.554-5.894,2.595-8.863c6.811-13.499,19.818-19.624,33.735-20.904
				c5.22,0.48,10.311,1.641,14.995,3.617c3.124,1.318,6.065,2.997,8.744,5.078c4.018,3.121,7.443,7.146,9.998,12.209
				c5.202,14.845,5.852,29.304,4.49,43.617c-0.136,1.431-0.293,2.861-0.466,4.29c-0.348,2.858-0.766,5.71-1.234,8.56
				c-0.469,2.85-0.986,5.696-1.533,8.542c-0.548,2.846-1.125,5.691-1.712,8.537c-0.586,2.846-1.182,5.693-1.767,8.542
				c-0.585,2.85-1.159,5.702-1.702,8.56c-0.543,2.858-1.054,5.72-1.514,8.589c-2.069,12.911-3.093,25.958-1.22,39.318
				c1.873,15.587,11.119,26.165,19.443,38.073c1.849,2.646,3.653,5.358,5.321,8.205c1.043,1.78,2.031,3.612,2.945,5.514
				c2.74,5.707,4.8,12.042,5.581,19.465c0.416,3.958,0.625,7.794,0.651,11.52c0.026,3.727-0.13,7.345-0.443,10.871
				c-0.468,5.288-1.288,10.368-2.37,15.292c-3.248,14.77-8.865,28.13-14.483,41.491c-0.607,1.752-1.172,3.493-1.699,5.223
				c-1.052,3.46-1.945,6.875-2.682,10.24c-0.737,3.365-1.32,6.68-1.752,9.942c-0.433,3.261-0.717,6.468-0.856,9.616
				c-0.278,6.297,0.021,12.359,0.858,18.151c0.417,2.896,0.969,5.724,1.65,8.481c0.34,1.378,0.714,2.739,1.118,4.08
				c0.493,1.635,1.048,3.232,1.633,4.811c8.018,1.428,16.097,3.95,23.442,7.281c-0.152-0.359-0.306-0.718-0.451-1.075
				c-0.097-0.237-0.184-0.472-0.278-0.709c-0.45-1.137-0.866-2.265-1.244-3.384c-0.065-0.197-0.139-0.395-0.204-0.59
				c-0.013-0.041-0.029-0.083-0.042-0.124h0.007c-0.38-1.175-0.712-2.338-1.003-3.49c-0.069-0.277-0.135-0.553-0.199-0.829
				c-0.282-1.207-0.527-2.406-0.701-3.588c-0.016-0.107-0.022-0.212-0.037-0.319c-0.154-1.111-0.248-2.208-0.298-3.294
				c-0.011-0.236-0.027-0.473-0.033-0.708c-0.028-1.131,0.004-2.247,0.098-3.348c0.019-0.224,0.051-0.444,0.075-0.667
				c0.116-1.054,0.282-2.096,0.519-3.122c0.023-0.098,0.036-0.197,0.06-0.294c0.263-1.081,0.619-2.142,1.028-3.19
				c0.09-0.229,0.18-0.457,0.276-0.684c0.439-1.035,0.939-2.056,1.531-3.056c0.081-0.138,0.178-0.272,0.263-0.409
				c0.569-0.922,1.211-1.827,1.918-2.718c0.135-0.17,0.258-0.342,0.397-0.51c0.788-0.948,1.666-1.875,2.621-2.784
				c0.203-0.194,0.418-0.385,0.629-0.576c1.022-0.929,2.105-1.844,3.316-2.731c36.619-23.752,109.855,23.752,133.158-39.587
				c4.161-9.897,7.022-22.886,11.834-34.136c2.886-6.75,6.475-12.874,11.469-17.327c2.234-1.771,4.634-3.292,7.145-4.553
				c1.531-0.769,3.112-1.408,4.713-1.981c1.023-0.367,2.05-0.728,3.093-1.013c5.35-1.464,10.92-1.849,16.265-1.075
				c0.133-1.386,0.26-2.744,0.39-4.114c1.766-18.655,3.221-35.764,4.538-49.059c0.906-9.146,0.562-19.519-0.652-30.458
				c5.701-11.198,9.753-22.548,9.753-22.548s-0.105,0.289-0.284,0.774c-0.936-1.578-1.94-3.155-3.046-4.733
				c-29.961-43.546-69.908-91.05-59.922-150.43c1.166-4.157,3.554-6.374,6.452-7.499c8.019-3.114,16.503,3.692,17.642,13.63
				c2.122,18.526,8.516,35.031,19.184,41.373c43.276,35.628,43.276,91.05,79.895,126.678c9.987,7.917,23.303,3.959,23.303,0
				c5.043-47.983,13.907-89.153,22.25-132.109C975.846,189.216,973.943,168.478,967.252,158.686z M506.887,462.551
				c-34.709,37.14-80.588,13.137-92.359-7.064c-12.105-20.773,11.021-56.551,50.681-49.72c31.863,5.488,41.316,36.674,43.801,48.725
				C509.609,457.387,508.866,460.434,506.887,462.551z M528.397,380.309c-11.805,7.202-21.126,9.516-28.36,8.604
				c-0.304,1.262-1.084,2.406-2.293,3.115c-0.789,0.462-1.647,0.677-2.497,0.677c-1.697,0-3.347-0.873-4.27-2.439
				c-0.116-0.196-8.187-13.546-21.36-16.074c-7.844-1.504-16.197,1.119-24.846,7.787c-2.166,1.666-5.267,1.27-6.94-0.9
				c-1.666-2.162-1.266-5.271,0.9-6.94c11.019-8.495,22.076-11.761,32.841-9.645c3.171,0.617,6.083,1.673,8.745,2.975
				c-4.674-20.829,3.852-48.482,16.778-43.544C521.274,333.161,541.322,372.424,528.397,380.309z M663.862,380.309
				c-12.926-7.884,7.122-47.148,31.304-56.385c12.925-4.937,21.45,22.716,16.777,43.545c2.661-1.302,5.573-2.358,8.744-2.976
				c10.769-2.097,21.826,1.15,32.844,9.645c2.166,1.67,2.566,4.778,0.9,6.94c-1.67,2.17-4.771,2.566-6.941,0.9
				c-8.656-6.671-17.028-9.307-24.85-7.783c-13.204,2.531-21.279,15.936-21.36,16.07c-0.924,1.562-2.574,2.431-4.267,2.431
				c-0.854,0-1.716-0.219-2.505-0.681c-1.203-0.709-1.982-1.848-2.286-3.104C684.99,389.825,675.668,387.511,663.862,380.309z
				 M777.73,455.487c-11.772,20.201-57.65,44.204-92.36,7.064c-1.977-2.117-2.72-5.164-2.123-8.059
				c2.485-12.051,11.938-43.237,43.8-48.725C766.71,398.935,789.836,434.714,777.73,455.487z"/>
		</g>
		<g>
			<path fill="#82495B" d="M218.804,290.696c-0.012,3.092-0.04,6.173-0.087,9.236C218.764,296.869,218.792,293.787,218.804,290.696z
				"/>
		</g>
		<g>
			<path fill="#82495B" d="M218.183,226.831c0.055,20.067,0.709,42.225,0.621,63.865
				C218.893,269.053,218.239,246.902,218.183,226.831z"/>
		</g>
	</g>
	<g>
		<g>
			<path fill="#D7F4F1" d="M554.965,562.888c-0.809,2.683-1.744,5.292-2.799,7.822c-0.133,0.317-0.284,0.622-0.419,0.936
				c25.135-6.455,55.792-7.94,81.424-4.599c1.377,0.18,2.761,0.406,4.146,0.652c-0.586-1.579-1.141-3.176-1.633-4.811
				c-0.404-1.342-0.777-2.702-1.118-4.08c-0.681-2.756-1.233-5.584-1.65-8.481c-0.837-5.792-1.136-11.854-0.858-18.151
				c0.139-3.148,0.423-6.355,0.856-9.616c0.433-3.261,1.016-6.577,1.752-9.942c0.738-3.365,1.63-6.78,2.682-10.24
				c0.526-1.73,1.092-3.471,1.699-5.223c5.618-13.361,11.235-26.722,14.483-41.491c1.082-4.923,1.902-10.003,2.37-15.292
				c0.624-7.051,0.624-14.474-0.209-22.391c-1.04-9.897-4.356-17.861-8.526-24.979c-1.668-2.847-3.471-5.559-5.321-8.205
				c-8.324-11.908-17.571-22.485-19.443-38.073c-1.873-13.36-0.848-26.408,1.22-39.318c0.46-2.869,0.971-5.731,1.514-8.589
				c0.543-2.857,1.118-5.71,1.702-8.56c0.585-2.85,1.181-5.696,1.767-8.542c0.587-2.846,1.164-5.691,1.712-8.537
				c0.547-2.846,1.065-5.692,1.533-8.542c0.468-2.85,0.886-5.702,1.234-8.56c0.173-1.429,0.33-2.859,0.466-4.29
				c1.362-14.314,0.712-28.772-4.49-43.617c-2.555-5.062-5.979-9.087-9.998-12.209c-2.679-2.081-5.62-3.76-8.744-5.078
				c-4.684-1.976-9.775-3.137-14.995-3.617c-13.917,1.28-26.924,7.404-33.735,20.904c-1.041,2.969-1.899,5.922-2.595,8.863
				c-1.742,7.35-2.472,14.615-2.509,21.826c-0.008,1.442,0.012,2.883,0.059,4.321c0.591,18.696,5.441,37.065,8.968,55.638
				c2.985,15.716,5.023,31.577,2.735,47.907c-3.33,27.711-29.961,39.587-33.29,71.256c-3.329,31.669,6.658,55.422,16.644,79.174
				C560.095,521.685,560.624,544.105,554.965,562.888z"/>
		</g>
		<g>
			<path fill="#D7F4F1" d="M719.909,693.015c-0.444-4.751-1.208-9.543-2.334-14.383c-0.562-2.42-1.215-4.851-1.962-7.296
				c-0.283-1.344-0.638-2.701-1.027-4.063c-0.119-0.413-0.252-0.829-0.38-1.244c-0.305-0.991-0.634-1.986-0.99-2.986
				c-0.154-0.429-0.304-0.858-0.467-1.289c-0.451-1.199-0.934-2.404-1.45-3.613c-0.078-0.182-0.145-0.362-0.224-0.544
				c-0.607-1.396-1.262-2.801-1.947-4.209c-0.191-0.394-0.394-0.789-0.592-1.183c-0.525-1.053-1.069-2.109-1.633-3.167
				c-0.233-0.438-0.467-0.877-0.707-1.316c-0.632-1.158-1.284-2.319-1.955-3.483c-0.154-0.268-0.302-0.535-0.458-0.804
				c-0.841-1.441-1.709-2.886-2.599-4.333c-0.201-0.326-0.408-0.652-0.61-0.978c-0.715-1.149-1.441-2.299-2.179-3.451
				c-0.267-0.416-0.535-0.831-0.804-1.247c-0.767-1.182-1.543-2.366-2.329-3.55c-0.179-0.268-0.353-0.535-0.532-0.803
				c-0.996-1.493-2.005-2.987-3.023-4.48c-0.095-0.139-0.191-0.277-0.286-0.416c-0.952-1.396-1.911-2.79-2.874-4.184
				c-0.195-0.282-0.391-0.565-0.586-0.847c-0.52-0.75-1.039-1.5-1.558-2.249c-0.728,1.087-1.535,2.172-2.51,3.252
				c-19.46,21.573-46.119,16.594-46.119,16.594s-14.807,33.14-33.407,37.793v21.08c8.391,6.275,46.183,30.132,95.693-5.909
				c2.209-1.604,5.298-1.123,6.914,1.089c1.608,2.209,1.119,5.305-1.089,6.914c-21.96,15.982-42.139,21.145-59.037,21.145
				c-30.551,0.004-50.38-16.859-50.684-17.128c-0.331-0.288-0.6-0.624-0.839-0.98c-0.239,0.356-0.51,0.693-0.839,0.98
				c-0.304,0.269-20.141,17.128-50.684,17.128c-16.901,0-37.076-5.159-59.04-21.145c-2.209-1.608-2.697-4.705-1.089-6.914
				c1.608-2.212,4.701-2.693,6.913-1.089c49.511,36.034,87.291,12.2,95.698,5.909v-24.895
				c-15.751-9.124-26.615-28.999-26.615-28.999s-47.276-3.664-55.421-24.831c-12.792,18.452-25.593,37.227-29.213,54.445
				c-1.495,4.888-2.61,9.726-3.385,14.52c-1.548,9.587-1.734,18.997-0.866,28.275c0.435,4.639,1.133,9.245,2.055,13.824
				c8.17,16.612,18.162,31.521,30.035,40.306c4.346,3.215,8.936,5.633,13.792,6.981c13.022,3.613,24.655,5.305,34.733,5.85
				c4.3,0.233,8.316,0.258,12.033,0.13c1.667-0.058,3.285-0.141,4.831-0.253c18.011-1.315,36.109-1.315,54.12,0
				c8.68,0.634,19.335,0.438,31.657-1.45c5.444-0.834,11.22-2.017,17.312-3.609c0.883-0.231,1.733-0.419,2.63-0.668
				c14.233-3.949,26.251-16.885,36.164-33.242c2.708-4.468,5.268-9.176,7.662-14.044
				C720.116,716.509,721.017,704.892,719.909,693.015z"/>
		</g>
	</g>
	<g>
		<path fill="#F7F7F7" d="M451.323,421.391c-17.682-6.495-37.847,42.074-4.63,32.679
			C459.256,450.517,469.004,427.886,451.323,421.391z"/>
	</g>
	<g>
		<g>
			<path fill="#BA8092" d="M534.199,552.852c-0.116-1.05-0.281-2.089-0.518-3.111c-0.023-0.1-0.036-0.203-0.061-0.304
				c-0.264-1.081-0.619-2.14-1.027-3.187c-0.088-0.229-0.18-0.457-0.276-0.684c-0.439-1.035-0.938-2.055-1.53-3.055
				c-0.082-0.139-0.18-0.274-0.266-0.413c-0.568-0.921-1.209-1.825-1.916-2.715c-0.135-0.17-0.258-0.342-0.398-0.51
				c-0.787-0.947-1.664-1.874-2.619-2.783c-0.204-0.194-0.419-0.386-0.632-0.578c-1.021-0.929-2.103-1.844-3.314-2.73
				c-36.618-23.752-109.856,23.752-133.159-39.587c-0.415-0.99-0.819-2.01-1.212-3.057c-4.327-11.514-7.474-26.185-13.768-37.582
				c-1.144-2.072-2.393-4.036-3.771-5.853c-1.378-1.817-2.887-3.487-4.551-4.972c-8.935-7.083-20.526-10.169-31.214-8.623
				c0.269,2.807,0.548,5.652,0.834,8.515c1.113,11.176,2.347,22.711,3.74,34.191c5.437,44.82,13.282,88.68,25.729,105.971
				c31.135,43.254,80.296,59.24,80.296,59.24s1.174,6.139,3.542,15.777c-18.19,54.585-39.059,121.292-45.793,158.77
				c13.088,12.163,27.3,23.115,42.451,32.728c1.848-15.854,7.283-31.148,17.3-45.173c11.073-14.238,25.94-24.679,40.811-34.868
				c-11.872-8.784-21.865-23.694-30.035-40.306c-0.923-4.579-1.621-9.185-2.055-13.824c-0.869-9.278-0.683-18.688,0.866-28.275
				c0.774-4.794,1.89-9.632,3.385-14.52c3.619-17.217,16.42-35.992,29.213-54.445c-1.371-3.564-1.67-7.607-0.409-12.23
				c2.72-9.965,11.359-18,23.486-24.151c1.239-2.477,2.344-4.919,3.297-7.324c0.447-1.13,0.86-2.251,1.235-3.362
				c0.068-0.201,0.144-0.405,0.21-0.605c0.014-0.041,0.021-0.08,0.035-0.121c0.38-1.175,0.712-2.339,1.003-3.492
				c0.069-0.276,0.134-0.55,0.198-0.825c0.283-1.208,0.528-2.406,0.701-3.587c0.016-0.111,0.023-0.22,0.039-0.33
				c0.154-1.108,0.247-2.202,0.297-3.285c0.011-0.236,0.027-0.474,0.033-0.709c0.028-1.129-0.004-2.244-0.099-3.345
				C534.254,553.3,534.224,553.076,534.199,552.852z"/>
		</g>
		<g>
			<path fill="#BA8092" d="M840.42,434.185c-1.044,0.285-2.07,0.646-3.093,1.013c-1.601,0.574-3.183,1.212-4.713,1.981
				c-2.51,1.261-4.911,2.782-7.145,4.553c-4.994,4.453-8.582,10.577-11.469,17.327c-4.811,11.25-7.673,24.24-11.834,34.136
				c-23.303,63.339-96.54,15.835-133.158,39.587c-1.211,0.887-2.294,1.802-3.316,2.731c-0.211,0.192-0.426,0.383-0.629,0.576
				c-0.955,0.91-1.833,1.837-2.621,2.784c-0.14,0.168-0.262,0.34-0.397,0.51c-0.707,0.89-1.349,1.796-1.918,2.718
				c-0.085,0.137-0.182,0.271-0.263,0.409c-0.592,1-1.093,2.021-1.531,3.056c-0.096,0.227-0.186,0.455-0.276,0.684
				c-0.409,1.048-0.765,2.108-1.028,3.19c-0.024,0.097-0.037,0.197-0.06,0.294c-0.237,1.026-0.403,2.068-0.519,3.122
				c-0.024,0.222-0.056,0.443-0.075,0.667c-0.094,1.101-0.126,2.217-0.098,3.348c0.006,0.235,0.021,0.472,0.033,0.708
				c0.05,1.087,0.144,2.183,0.298,3.294c0.015,0.107,0.021,0.211,0.037,0.319c0.174,1.182,0.419,2.38,0.701,3.588
				c0.065,0.276,0.13,0.552,0.199,0.829c0.292,1.153,0.623,2.316,1.003,3.49c0.013,0.042,0.022,0.082,0.035,0.124
				c0.065,0.196,0.139,0.394,0.204,0.59c0.377,1.119,0.794,2.247,1.244,3.384c0.094,0.236,0.181,0.471,0.278,0.709
				c0.146,0.359,0.321,0.725,0.473,1.085c21.252,9.644,36.275,26.003,25.621,41.908c0.52,0.75,1.039,1.499,1.558,2.249
				c0.195,0.282,0.39,0.565,0.586,0.847c0.963,1.394,1.922,2.788,2.874,4.184c0.095,0.139,0.19,0.277,0.286,0.416
				c1.018,1.493,2.026,2.987,3.023,4.48c0.179,0.268,0.353,0.535,0.532,0.803c0.787,1.184,1.563,2.367,2.329,3.55
				c0.269,0.416,0.538,0.831,0.804,1.247c0.739,1.151,1.465,2.302,2.179,3.451c0.202,0.326,0.409,0.652,0.61,0.978
				c0.89,1.447,1.758,2.892,2.599,4.333c0.156,0.268,0.304,0.536,0.458,0.804c0.671,1.163,1.323,2.324,1.955,3.483
				c0.24,0.439,0.474,0.878,0.707,1.316c0.564,1.059,1.108,2.114,1.633,3.167c0.198,0.394,0.401,0.79,0.592,1.183
				c0.685,1.409,1.34,2.813,1.947,4.209c0.079,0.182,0.146,0.362,0.224,0.544c0.517,1.21,0.999,2.414,1.45,3.613
				c0.163,0.431,0.313,0.86,0.467,1.289c0.356,1,0.685,1.995,0.99,2.986c0.128,0.415,0.261,0.83,0.38,1.244
				c0.39,1.362,0.745,2.718,1.027,4.063c0.747,2.444,1.4,4.876,1.962,7.296c1.125,4.84,1.89,9.632,2.334,14.383
				c1.108,11.877,0.207,23.494-2.101,34.941c-2.394,4.868-4.954,9.577-7.662,14.044c36.312,29.061,71.54,56.165,40.903,104.675
				c-1.221,2.094-2.425,4.239-3.61,6.421c25.333-14.976,48.239-33.637,67.896-55.318c-9.363-42.781-31.354-114.506-47.851-166.244
				c17.056-8.976,40.96-24.829,58.896-49.747c13.795-19.165,21.939-70.968,27.415-120.542c1.054-9.543,2.01-19.005,2.889-28.135
				C851.34,432.337,845.769,432.722,840.42,434.185z"/>
		</g>
		<g>
			<path fill="#BA8092" d="M990.555,385.955c-0.836-1.39-1.61-2.881-2.357-4.415c-0.198-0.407-0.391-0.821-0.583-1.238
				c-0.63-1.365-1.232-2.776-1.799-4.242c-0.091-0.236-0.192-0.459-0.281-0.697c-0.638-1.694-1.228-3.462-1.788-5.278
				c-0.14-0.453-0.273-0.919-0.409-1.38c-0.452-1.54-0.881-3.117-1.284-4.735c-0.097-0.391-0.201-0.772-0.296-1.167
				c-0.469-1.963-0.904-3.979-1.308-6.043c-0.085-0.434-0.162-0.879-0.243-1.317c-0.328-1.755-0.635-3.543-0.919-5.362
				c-0.077-0.492-0.158-0.978-0.232-1.474c-0.328-2.2-0.631-4.437-0.902-6.72c-0.037-0.299-0.066-0.607-0.101-0.908
				c-0.238-2.06-0.452-4.153-0.648-6.272c-0.048-0.522-0.097-1.043-0.143-1.569c-0.423-4.851-0.747-9.839-0.99-14.931
				c-0.023-0.483-0.045-0.968-0.067-1.453c-0.232-5.209-0.384-10.514-0.473-15.883c-0.006-0.328-0.01-0.657-0.015-0.985
				c-0.373-24.424,0.467-50,0.533-72.874c0.002-0.608,0.006-1.22,0.006-1.824c0.002-1.375-0.002-2.733-0.008-4.088
				c-0.003-0.961-0.01-1.913-0.017-2.862c-0.01-1.227-0.017-2.458-0.034-3.663c-8.346,42.972-17.214,84.153-22.258,132.152
				c0,3.959-13.316,7.917-23.303,0c-36.619-35.628-36.619-91.05-79.895-126.678c-10.668-6.343-17.062-22.847-19.184-41.373
				c-1.139-9.938-9.623-16.745-17.642-13.63c-2.898,1.126-5.286,3.343-6.452,7.499c-9.987,59.38,29.961,106.884,59.922,150.43
				c1.106,1.577,2.11,3.155,3.046,4.733c0.179-0.485,0.284-0.774,0.284-0.774c7.607,18.696,24.49,36.099,43.438,49.86
				C957.387,408.194,1011.387,420.609,990.555,385.955z"/>
		</g>
		<g>
			<path fill="#BA8092" d="M386.97,172.542c-1.166-4.157-3.554-6.374-6.452-7.499c-8.019-3.114-16.503,3.692-17.642,13.63
				c-2.122,18.526-8.516,35.031-19.184,41.373c-43.276,35.628-43.276,91.05-79.895,126.678c-9.987,7.917-23.303,3.959-23.303,0
				c-5.045-47.998-13.912-89.18-22.258-132.152c-0.016,1.206-0.025,2.436-0.035,3.663c-0.007,0.949-0.014,1.901-0.017,2.862
				c-0.006,1.358-0.01,2.72-0.008,4.099c0,0.541,0.004,1.09,0.005,1.634c0.062,22.935,0.909,48.6,0.534,73.101
				c-0.005,0.301-0.009,0.603-0.014,0.904c-0.089,5.381-0.242,10.698-0.474,15.918c-0.022,0.485-0.043,0.968-0.066,1.451
				c-0.243,5.092-0.567,10.08-0.991,14.931c-0.046,0.525-0.095,1.047-0.143,1.569c-0.197,2.128-0.412,4.229-0.651,6.297
				c-0.033,0.29-0.061,0.586-0.096,0.874c-0.271,2.286-0.575,4.526-0.904,6.729c-0.074,0.496-0.154,0.983-0.231,1.474
				c-0.286,1.82-0.593,3.608-0.921,5.362c-0.082,0.438-0.159,0.884-0.243,1.317c-0.404,2.064-0.839,4.08-1.308,6.043
				c-0.095,0.396-0.199,0.777-0.296,1.169c-0.403,1.616-0.831,3.192-1.283,4.73c-0.135,0.463-0.269,0.93-0.41,1.384
				c-0.56,1.816-1.15,3.583-1.787,5.277c-0.09,0.239-0.19,0.461-0.282,0.697c-0.566,1.466-1.169,2.877-1.799,4.242
				c-0.192,0.417-0.386,0.831-0.584,1.238c-0.746,1.535-1.522,3.025-2.356,4.415c-21.655,36.024,37.554,21.188,81.476-12.973
				c16.844-13.102,31.445-29.041,38.366-46.051c0,0,0.105,0.289,0.283,0.774c0.936-1.578,1.941-3.155,3.046-4.733
				C357.01,279.426,396.957,231.922,386.97,172.542z"/>
		</g>
		<g>
			<path fill="#BA8092" d="M499.513,385.257c0.672,1.151,0.812,2.457,0.523,3.656c7.234,0.912,16.555-1.402,28.36-8.604
				c12.925-7.884-7.122-47.148-31.303-56.385c-12.926-4.937-21.452,22.716-16.778,43.544
				C492.441,373.402,499.175,384.679,499.513,385.257z"/>
		</g>
		<g>
			<path fill="#BA8092" d="M663.862,380.309c11.806,7.202,21.128,9.517,28.362,8.604c-0.289-1.198-0.15-2.503,0.523-3.652
				c0.336-0.581,7.069-11.856,19.195-17.792c4.673-20.829-3.852-48.482-16.777-43.545
				C670.984,333.161,650.936,372.424,663.862,380.309z"/>
		</g>
	</g>
	<g>
		<path fill="#F7F7F7" d="M708.385,442.601c3.926,35.772,39.61-1.776,27.312-16.571
			C723.398,411.234,706.899,429.073,708.385,442.601z"/>
	</g>
	<g>
		<g>
			<path fill="#28161D" d="M563.434,781.223c-3.717,0.128-7.733,0.103-12.033-0.13c7.446,10.688,14.736,24.902,19.868,43.563
				c0.604,2.196,2.597,3.64,4.767,3.64c0.435,0,0.877-0.058,1.316-0.181c2.635-0.723,4.186-3.447,3.459-6.082
				C576.212,805.314,570.021,791.909,563.434,781.223z"/>
		</g>
		<g>
			<path fill="#28161D" d="M590.783,886.762c-0.8,2.612,0.673,5.379,3.286,6.179c0.481,0.146,0.969,0.219,1.447,0.219
				c2.12,0,4.082-1.373,4.732-3.505c15.705-51.372,48.81-91.278,71.106-113.745c-6.091,1.592-11.868,2.775-17.312,3.609
				C632.065,803.605,604.955,840.401,590.783,886.762z"/>
		</g>
		<g>
			<path fill="#28161D" d="M700.061,689.708c-49.511,36.041-87.303,12.184-95.693,5.909v-21.08
				c18.6-4.653,33.407-37.793,33.407-37.793s26.659,4.979,46.119-16.594c0.975-1.08,1.782-2.166,2.51-3.252
				c10.654-15.905-4.369-32.264-25.621-41.908c-0.007-0.003-0.014-0.007-0.022-0.01c-7.345-3.331-15.425-5.853-23.442-7.281
				c-1.385-0.247-2.769-0.473-4.146-0.652c-25.633-3.341-56.289-1.856-81.424,4.599c-9.012,2.315-17.319,5.262-24.422,8.865
				c-12.127,6.15-20.766,14.186-23.486,24.151c-1.261,4.623-0.962,8.666,0.409,12.23c8.146,21.168,55.421,24.831,55.421,24.831
				s10.864,19.875,26.615,28.999v24.895c-8.406,6.29-46.187,30.124-95.698-5.909c-2.212-1.604-5.305-1.123-6.913,1.089
				c-1.608,2.209-1.12,5.305,1.089,6.914c21.964,15.985,42.139,21.145,59.04,21.145c30.543,0,50.38-16.859,50.684-17.128
				c0.329-0.288,0.599-0.624,0.839-0.98c0.239,0.356,0.508,0.693,0.839,0.98c0.304,0.269,20.133,17.132,50.684,17.128
				c16.897,0,37.076-5.163,59.037-21.145c2.208-1.608,2.697-4.705,1.089-6.914C705.359,688.585,702.269,688.104,700.061,689.708z"/>
		</g>
		<g>
			<path fill="#28161D" d="M506.887,462.551c1.978-2.117,2.721-5.164,2.124-8.059c-2.485-12.051-11.938-43.237-43.801-48.725
				c-39.661-6.832-62.787,28.947-50.681,49.72C426.299,475.688,472.178,499.691,506.887,462.551z M446.694,454.07
				c-33.217,9.395-13.053-39.174,4.63-32.679C469.004,427.886,459.256,450.517,446.694,454.07z"/>
		</g>
		<g>
			<path fill="#28161D" d="M444.77,381.979c8.649-6.667,17.001-9.291,24.846-7.787c13.173,2.528,21.245,15.878,21.36,16.074
				c0.923,1.566,2.574,2.439,4.27,2.439c0.85,0,1.708-0.215,2.497-0.677c1.209-0.709,1.989-1.853,2.293-3.115
				c0.288-1.2,0.149-2.505-0.523-3.656c-0.338-0.577-7.072-11.854-19.198-17.789c-2.662-1.303-5.574-2.358-8.745-2.975
				c-10.765-2.116-21.822,1.15-32.841,9.645c-2.166,1.67-2.566,4.778-0.9,6.94C439.503,383.248,442.604,383.644,444.77,381.979z"/>
		</g>
		<g>
			<path fill="#28161D" d="M727.048,405.767c-31.862,5.488-41.315,36.674-43.8,48.725c-0.597,2.895,0.145,5.941,2.123,8.059
				c34.71,37.14,80.588,13.137,92.36-7.064C789.836,434.714,766.71,398.935,727.048,405.767z M708.385,442.601
				c-1.485-13.529,15.013-31.367,27.312-16.571C747.994,440.825,712.311,478.373,708.385,442.601z"/>
		</g>
		<g>
			<path fill="#28161D" d="M694.509,392.016c0.789,0.462,1.65,0.681,2.505,0.681c1.693,0,3.343-0.869,4.267-2.431
				c0.081-0.135,8.156-13.539,21.36-16.07c7.821-1.523,16.193,1.112,24.85,7.783c2.17,1.666,5.271,1.27,6.941-0.9
				c1.666-2.162,1.266-5.271-0.9-6.94c-11.019-8.495-22.076-11.742-32.844-9.645c-3.171,0.618-6.083,1.673-8.744,2.976
				c-12.126,5.936-18.859,17.211-19.195,17.792c-0.673,1.149-0.813,2.454-0.523,3.652
				C692.528,390.168,693.306,391.307,694.509,392.016z"/>
		</g>
	</g>
	<g>
		<g>
			<path fill="#65C4BF" d="M309.319,602.728c0,83.989,35.846,159.73,92.995,212.846c6.734-37.478,27.604-104.185,45.793-158.77
				c-2.369-9.638-3.542-15.777-3.542-15.777s-49.161-15.986-80.296-59.24c-12.447-17.291-20.292-61.151-25.729-105.971
				C319.839,514.187,309.318,557.249,309.319,602.728L309.319,602.728z"/>
		</g>
		<g>
			<path fill="#65C4BF" d="M890.683,602.728L890.683,602.728c-0.001-51.34-13.433-99.579-36.887-141.484
				c-5.475,49.574-13.619,101.377-27.415,120.542c-17.936,24.918-41.84,40.771-58.896,49.747
				c16.497,51.738,38.488,123.463,47.851,166.244C862.13,746.164,890.683,677.72,890.683,602.728z"/>
		</g>
		<g>
			<path fill="#65C4BF" d="M1012.951,602.727c0-33.585-21.151-62.157-50.826-73.334c15.08-14.293,24.538-34.461,24.538-56.879
				c0-42.807-34.312-77.541-76.925-78.349c2.112-5.519,3.57-11.348,4.413-17.374c-18.948-13.761-35.831-31.164-43.438-49.86
				c0,0-4.052,11.35-9.753,22.548c1.214,10.94,1.558,21.313,0.652,30.458c-1.317,13.295-2.772,30.404-4.538,49.059
				c33.633,49.609,53.305,109.414,53.305,173.732h0.001c0,76.89-28.168,147.285-74.643,201.561
				C778.766,870.823,694.253,913.108,600,913.108c-91.752,0-174.299-40.05-231.172-103.55
				c-49.211-54.945-79.208-127.439-79.208-206.829h-0.001c0-58.951,16.527-114.111,45.181-161.104
				c-0.286-2.863-0.564-5.708-0.834-8.515c-1.948-20.259-3.516-38.901-4.93-53.172c-1.077-10.877-0.437-23.453,1.414-36.709
				c-4.057-8.81-6.73-16.297-6.73-16.297c-6.921,17.01-21.522,32.95-38.366,46.051c0.659,7.402,2.353,14.504,4.908,21.182
				c-42.613,0.808-76.926,35.543-76.926,78.349c0,22.418,9.458,42.587,24.538,56.879c-29.675,11.177-50.826,39.749-50.826,73.334
				c0,33.584,21.151,62.156,50.826,73.333c-15.081,14.293-24.538,34.461-24.538,56.879c0,42.806,34.312,77.541,76.926,78.349
				c-3.331,8.702-5.233,18.111-5.233,27.984c0,43.313,35.113,78.425,78.425,78.425c9.873,0,19.283-1.902,27.984-5.232
				c0.808,42.613,35.543,76.924,78.349,76.924c22.418,0,42.586-9.456,56.88-24.538c11.176,29.676,39.748,50.827,73.333,50.827
				c33.584,0,62.156-21.151,73.333-50.827c14.293,15.081,34.461,24.538,56.879,24.538c42.806,0,77.542-34.312,78.349-76.924
				c8.703,3.33,18.112,5.232,27.985,5.232c43.313,0,78.424-35.112,78.424-78.425c0-9.873-1.903-19.282-5.233-27.984
				c42.614-0.808,76.925-35.543,76.925-78.349c0-22.418-9.456-42.586-24.538-56.879
				C991.801,664.883,1012.951,636.311,1012.951,602.727z"/>
		</g>
	</g>
</g>
</svg>
